%TF.GenerationSoftware,KiCad,Pcbnew,10.0.5*%
%TF.CreationDate,2026-08-22T21:32:10+09:00*%
%TF.ProjectId,mizuyari01,6d697a75-7961-4726-9930-312e6b696361,rev?*%
%TF.SameCoordinates,Original*%
%TF.FileFunction,Legend,Top*%
%TF.FilePolarity,Positive*%
%FSLAX46Y46*%
G04 Gerber Fmt 4.6, Leading zero omitted, Abs format (unit mm)*
G04 Created by KiCad (PCBNEW 10.0.5) date 2026-08-22 21:32:10*
%MOMM*%
%LPD*%
G01*
G04 APERTURE LIST*
%ADD10C,0.150000*%
%ADD11C,0.120000*%
G04 APERTURE END LIST*
D10*
X97833333Y-76359580D02*
X97785714Y-76407200D01*
X97785714Y-76407200D02*
X97642857Y-76454819D01*
X97642857Y-76454819D02*
X97547619Y-76454819D01*
X97547619Y-76454819D02*
X97404762Y-76407200D01*
X97404762Y-76407200D02*
X97309524Y-76311961D01*
X97309524Y-76311961D02*
X97261905Y-76216723D01*
X97261905Y-76216723D02*
X97214286Y-76026247D01*
X97214286Y-76026247D02*
X97214286Y-75883390D01*
X97214286Y-75883390D02*
X97261905Y-75692914D01*
X97261905Y-75692914D02*
X97309524Y-75597676D01*
X97309524Y-75597676D02*
X97404762Y-75502438D01*
X97404762Y-75502438D02*
X97547619Y-75454819D01*
X97547619Y-75454819D02*
X97642857Y-75454819D01*
X97642857Y-75454819D02*
X97785714Y-75502438D01*
X97785714Y-75502438D02*
X97833333Y-75550057D01*
X98690476Y-75788152D02*
X98690476Y-76454819D01*
X98452381Y-75407200D02*
X98214286Y-76121485D01*
X98214286Y-76121485D02*
X98833333Y-76121485D01*
X56954819Y-61083333D02*
X57669104Y-61083333D01*
X57669104Y-61083333D02*
X57811961Y-61130952D01*
X57811961Y-61130952D02*
X57907200Y-61226190D01*
X57907200Y-61226190D02*
X57954819Y-61369047D01*
X57954819Y-61369047D02*
X57954819Y-61464285D01*
X56954819Y-60702380D02*
X56954819Y-60083333D01*
X56954819Y-60083333D02*
X57335771Y-60416666D01*
X57335771Y-60416666D02*
X57335771Y-60273809D01*
X57335771Y-60273809D02*
X57383390Y-60178571D01*
X57383390Y-60178571D02*
X57431009Y-60130952D01*
X57431009Y-60130952D02*
X57526247Y-60083333D01*
X57526247Y-60083333D02*
X57764342Y-60083333D01*
X57764342Y-60083333D02*
X57859580Y-60130952D01*
X57859580Y-60130952D02*
X57907200Y-60178571D01*
X57907200Y-60178571D02*
X57954819Y-60273809D01*
X57954819Y-60273809D02*
X57954819Y-60559523D01*
X57954819Y-60559523D02*
X57907200Y-60654761D01*
X57907200Y-60654761D02*
X57859580Y-60702380D01*
X98454819Y-67761904D02*
X99264342Y-67761904D01*
X99264342Y-67761904D02*
X99359580Y-67714285D01*
X99359580Y-67714285D02*
X99407200Y-67666666D01*
X99407200Y-67666666D02*
X99454819Y-67571428D01*
X99454819Y-67571428D02*
X99454819Y-67380952D01*
X99454819Y-67380952D02*
X99407200Y-67285714D01*
X99407200Y-67285714D02*
X99359580Y-67238095D01*
X99359580Y-67238095D02*
X99264342Y-67190476D01*
X99264342Y-67190476D02*
X98454819Y-67190476D01*
X99454819Y-66190476D02*
X99454819Y-66761904D01*
X99454819Y-66476190D02*
X98454819Y-66476190D01*
X98454819Y-66476190D02*
X98597676Y-66571428D01*
X98597676Y-66571428D02*
X98692914Y-66666666D01*
X98692914Y-66666666D02*
X98740533Y-66761904D01*
X101084819Y-69166666D02*
X100608628Y-69499999D01*
X101084819Y-69738094D02*
X100084819Y-69738094D01*
X100084819Y-69738094D02*
X100084819Y-69357142D01*
X100084819Y-69357142D02*
X100132438Y-69261904D01*
X100132438Y-69261904D02*
X100180057Y-69214285D01*
X100180057Y-69214285D02*
X100275295Y-69166666D01*
X100275295Y-69166666D02*
X100418152Y-69166666D01*
X100418152Y-69166666D02*
X100513390Y-69214285D01*
X100513390Y-69214285D02*
X100561009Y-69261904D01*
X100561009Y-69261904D02*
X100608628Y-69357142D01*
X100608628Y-69357142D02*
X100608628Y-69738094D01*
X101084819Y-68214285D02*
X101084819Y-68785713D01*
X101084819Y-68499999D02*
X100084819Y-68499999D01*
X100084819Y-68499999D02*
X100227676Y-68595237D01*
X100227676Y-68595237D02*
X100322914Y-68690475D01*
X100322914Y-68690475D02*
X100370533Y-68785713D01*
X109404761Y-75454819D02*
X109071428Y-74978628D01*
X108833333Y-75454819D02*
X108833333Y-74454819D01*
X108833333Y-74454819D02*
X109214285Y-74454819D01*
X109214285Y-74454819D02*
X109309523Y-74502438D01*
X109309523Y-74502438D02*
X109357142Y-74550057D01*
X109357142Y-74550057D02*
X109404761Y-74645295D01*
X109404761Y-74645295D02*
X109404761Y-74788152D01*
X109404761Y-74788152D02*
X109357142Y-74883390D01*
X109357142Y-74883390D02*
X109309523Y-74931009D01*
X109309523Y-74931009D02*
X109214285Y-74978628D01*
X109214285Y-74978628D02*
X108833333Y-74978628D01*
X109690476Y-74454819D02*
X110023809Y-75454819D01*
X110023809Y-75454819D02*
X110357142Y-74454819D01*
X111214285Y-75454819D02*
X110642857Y-75454819D01*
X110928571Y-75454819D02*
X110928571Y-74454819D01*
X110928571Y-74454819D02*
X110833333Y-74597676D01*
X110833333Y-74597676D02*
X110738095Y-74692914D01*
X110738095Y-74692914D02*
X110642857Y-74740533D01*
X92833333Y-48084819D02*
X92500000Y-47608628D01*
X92261905Y-48084819D02*
X92261905Y-47084819D01*
X92261905Y-47084819D02*
X92642857Y-47084819D01*
X92642857Y-47084819D02*
X92738095Y-47132438D01*
X92738095Y-47132438D02*
X92785714Y-47180057D01*
X92785714Y-47180057D02*
X92833333Y-47275295D01*
X92833333Y-47275295D02*
X92833333Y-47418152D01*
X92833333Y-47418152D02*
X92785714Y-47513390D01*
X92785714Y-47513390D02*
X92738095Y-47561009D01*
X92738095Y-47561009D02*
X92642857Y-47608628D01*
X92642857Y-47608628D02*
X92261905Y-47608628D01*
X93690476Y-47084819D02*
X93500000Y-47084819D01*
X93500000Y-47084819D02*
X93404762Y-47132438D01*
X93404762Y-47132438D02*
X93357143Y-47180057D01*
X93357143Y-47180057D02*
X93261905Y-47322914D01*
X93261905Y-47322914D02*
X93214286Y-47513390D01*
X93214286Y-47513390D02*
X93214286Y-47894342D01*
X93214286Y-47894342D02*
X93261905Y-47989580D01*
X93261905Y-47989580D02*
X93309524Y-48037200D01*
X93309524Y-48037200D02*
X93404762Y-48084819D01*
X93404762Y-48084819D02*
X93595238Y-48084819D01*
X93595238Y-48084819D02*
X93690476Y-48037200D01*
X93690476Y-48037200D02*
X93738095Y-47989580D01*
X93738095Y-47989580D02*
X93785714Y-47894342D01*
X93785714Y-47894342D02*
X93785714Y-47656247D01*
X93785714Y-47656247D02*
X93738095Y-47561009D01*
X93738095Y-47561009D02*
X93690476Y-47513390D01*
X93690476Y-47513390D02*
X93595238Y-47465771D01*
X93595238Y-47465771D02*
X93404762Y-47465771D01*
X93404762Y-47465771D02*
X93309524Y-47513390D01*
X93309524Y-47513390D02*
X93261905Y-47561009D01*
X93261905Y-47561009D02*
X93214286Y-47656247D01*
X70824819Y-63976666D02*
X70348628Y-64309999D01*
X70824819Y-64548094D02*
X69824819Y-64548094D01*
X69824819Y-64548094D02*
X69824819Y-64167142D01*
X69824819Y-64167142D02*
X69872438Y-64071904D01*
X69872438Y-64071904D02*
X69920057Y-64024285D01*
X69920057Y-64024285D02*
X70015295Y-63976666D01*
X70015295Y-63976666D02*
X70158152Y-63976666D01*
X70158152Y-63976666D02*
X70253390Y-64024285D01*
X70253390Y-64024285D02*
X70301009Y-64071904D01*
X70301009Y-64071904D02*
X70348628Y-64167142D01*
X70348628Y-64167142D02*
X70348628Y-64548094D01*
X69824819Y-63643332D02*
X69824819Y-63024285D01*
X69824819Y-63024285D02*
X70205771Y-63357618D01*
X70205771Y-63357618D02*
X70205771Y-63214761D01*
X70205771Y-63214761D02*
X70253390Y-63119523D01*
X70253390Y-63119523D02*
X70301009Y-63071904D01*
X70301009Y-63071904D02*
X70396247Y-63024285D01*
X70396247Y-63024285D02*
X70634342Y-63024285D01*
X70634342Y-63024285D02*
X70729580Y-63071904D01*
X70729580Y-63071904D02*
X70777200Y-63119523D01*
X70777200Y-63119523D02*
X70824819Y-63214761D01*
X70824819Y-63214761D02*
X70824819Y-63500475D01*
X70824819Y-63500475D02*
X70777200Y-63595713D01*
X70777200Y-63595713D02*
X70729580Y-63643332D01*
X89333333Y-56359580D02*
X89285714Y-56407200D01*
X89285714Y-56407200D02*
X89142857Y-56454819D01*
X89142857Y-56454819D02*
X89047619Y-56454819D01*
X89047619Y-56454819D02*
X88904762Y-56407200D01*
X88904762Y-56407200D02*
X88809524Y-56311961D01*
X88809524Y-56311961D02*
X88761905Y-56216723D01*
X88761905Y-56216723D02*
X88714286Y-56026247D01*
X88714286Y-56026247D02*
X88714286Y-55883390D01*
X88714286Y-55883390D02*
X88761905Y-55692914D01*
X88761905Y-55692914D02*
X88809524Y-55597676D01*
X88809524Y-55597676D02*
X88904762Y-55502438D01*
X88904762Y-55502438D02*
X89047619Y-55454819D01*
X89047619Y-55454819D02*
X89142857Y-55454819D01*
X89142857Y-55454819D02*
X89285714Y-55502438D01*
X89285714Y-55502438D02*
X89333333Y-55550057D01*
X89666667Y-55454819D02*
X90285714Y-55454819D01*
X90285714Y-55454819D02*
X89952381Y-55835771D01*
X89952381Y-55835771D02*
X90095238Y-55835771D01*
X90095238Y-55835771D02*
X90190476Y-55883390D01*
X90190476Y-55883390D02*
X90238095Y-55931009D01*
X90238095Y-55931009D02*
X90285714Y-56026247D01*
X90285714Y-56026247D02*
X90285714Y-56264342D01*
X90285714Y-56264342D02*
X90238095Y-56359580D01*
X90238095Y-56359580D02*
X90190476Y-56407200D01*
X90190476Y-56407200D02*
X90095238Y-56454819D01*
X90095238Y-56454819D02*
X89809524Y-56454819D01*
X89809524Y-56454819D02*
X89714286Y-56407200D01*
X89714286Y-56407200D02*
X89666667Y-56359580D01*
X89333333Y-72359580D02*
X89285714Y-72407200D01*
X89285714Y-72407200D02*
X89142857Y-72454819D01*
X89142857Y-72454819D02*
X89047619Y-72454819D01*
X89047619Y-72454819D02*
X88904762Y-72407200D01*
X88904762Y-72407200D02*
X88809524Y-72311961D01*
X88809524Y-72311961D02*
X88761905Y-72216723D01*
X88761905Y-72216723D02*
X88714286Y-72026247D01*
X88714286Y-72026247D02*
X88714286Y-71883390D01*
X88714286Y-71883390D02*
X88761905Y-71692914D01*
X88761905Y-71692914D02*
X88809524Y-71597676D01*
X88809524Y-71597676D02*
X88904762Y-71502438D01*
X88904762Y-71502438D02*
X89047619Y-71454819D01*
X89047619Y-71454819D02*
X89142857Y-71454819D01*
X89142857Y-71454819D02*
X89285714Y-71502438D01*
X89285714Y-71502438D02*
X89333333Y-71550057D01*
X89714286Y-71550057D02*
X89761905Y-71502438D01*
X89761905Y-71502438D02*
X89857143Y-71454819D01*
X89857143Y-71454819D02*
X90095238Y-71454819D01*
X90095238Y-71454819D02*
X90190476Y-71502438D01*
X90190476Y-71502438D02*
X90238095Y-71550057D01*
X90238095Y-71550057D02*
X90285714Y-71645295D01*
X90285714Y-71645295D02*
X90285714Y-71740533D01*
X90285714Y-71740533D02*
X90238095Y-71883390D01*
X90238095Y-71883390D02*
X89666667Y-72454819D01*
X89666667Y-72454819D02*
X90285714Y-72454819D01*
X110484819Y-56738094D02*
X109484819Y-56738094D01*
X109484819Y-56738094D02*
X109484819Y-56499999D01*
X109484819Y-56499999D02*
X109532438Y-56357142D01*
X109532438Y-56357142D02*
X109627676Y-56261904D01*
X109627676Y-56261904D02*
X109722914Y-56214285D01*
X109722914Y-56214285D02*
X109913390Y-56166666D01*
X109913390Y-56166666D02*
X110056247Y-56166666D01*
X110056247Y-56166666D02*
X110246723Y-56214285D01*
X110246723Y-56214285D02*
X110341961Y-56261904D01*
X110341961Y-56261904D02*
X110437200Y-56357142D01*
X110437200Y-56357142D02*
X110484819Y-56499999D01*
X110484819Y-56499999D02*
X110484819Y-56738094D01*
X110484819Y-55214285D02*
X110484819Y-55785713D01*
X110484819Y-55499999D02*
X109484819Y-55499999D01*
X109484819Y-55499999D02*
X109627676Y-55595237D01*
X109627676Y-55595237D02*
X109722914Y-55690475D01*
X109722914Y-55690475D02*
X109770533Y-55785713D01*
X110854819Y-61341904D02*
X109854819Y-61341904D01*
X110854819Y-60770476D02*
X110283390Y-61199047D01*
X109854819Y-60770476D02*
X110426247Y-61341904D01*
X86824819Y-60976666D02*
X86348628Y-61309999D01*
X86824819Y-61548094D02*
X85824819Y-61548094D01*
X85824819Y-61548094D02*
X85824819Y-61167142D01*
X85824819Y-61167142D02*
X85872438Y-61071904D01*
X85872438Y-61071904D02*
X85920057Y-61024285D01*
X85920057Y-61024285D02*
X86015295Y-60976666D01*
X86015295Y-60976666D02*
X86158152Y-60976666D01*
X86158152Y-60976666D02*
X86253390Y-61024285D01*
X86253390Y-61024285D02*
X86301009Y-61071904D01*
X86301009Y-61071904D02*
X86348628Y-61167142D01*
X86348628Y-61167142D02*
X86348628Y-61548094D01*
X86158152Y-60119523D02*
X86824819Y-60119523D01*
X85777200Y-60357618D02*
X86491485Y-60595713D01*
X86491485Y-60595713D02*
X86491485Y-59976666D01*
X103416667Y-50907200D02*
X103559524Y-50954819D01*
X103559524Y-50954819D02*
X103797619Y-50954819D01*
X103797619Y-50954819D02*
X103892857Y-50907200D01*
X103892857Y-50907200D02*
X103940476Y-50859580D01*
X103940476Y-50859580D02*
X103988095Y-50764342D01*
X103988095Y-50764342D02*
X103988095Y-50669104D01*
X103988095Y-50669104D02*
X103940476Y-50573866D01*
X103940476Y-50573866D02*
X103892857Y-50526247D01*
X103892857Y-50526247D02*
X103797619Y-50478628D01*
X103797619Y-50478628D02*
X103607143Y-50431009D01*
X103607143Y-50431009D02*
X103511905Y-50383390D01*
X103511905Y-50383390D02*
X103464286Y-50335771D01*
X103464286Y-50335771D02*
X103416667Y-50240533D01*
X103416667Y-50240533D02*
X103416667Y-50145295D01*
X103416667Y-50145295D02*
X103464286Y-50050057D01*
X103464286Y-50050057D02*
X103511905Y-50002438D01*
X103511905Y-50002438D02*
X103607143Y-49954819D01*
X103607143Y-49954819D02*
X103845238Y-49954819D01*
X103845238Y-49954819D02*
X103988095Y-50002438D01*
X104321429Y-49954819D02*
X104559524Y-50954819D01*
X104559524Y-50954819D02*
X104750000Y-50240533D01*
X104750000Y-50240533D02*
X104940476Y-50954819D01*
X104940476Y-50954819D02*
X105178572Y-49954819D01*
X106083333Y-50954819D02*
X105511905Y-50954819D01*
X105797619Y-50954819D02*
X105797619Y-49954819D01*
X105797619Y-49954819D02*
X105702381Y-50097676D01*
X105702381Y-50097676D02*
X105607143Y-50192914D01*
X105607143Y-50192914D02*
X105511905Y-50240533D01*
X71833333Y-74084819D02*
X71500000Y-73608628D01*
X71261905Y-74084819D02*
X71261905Y-73084819D01*
X71261905Y-73084819D02*
X71642857Y-73084819D01*
X71642857Y-73084819D02*
X71738095Y-73132438D01*
X71738095Y-73132438D02*
X71785714Y-73180057D01*
X71785714Y-73180057D02*
X71833333Y-73275295D01*
X71833333Y-73275295D02*
X71833333Y-73418152D01*
X71833333Y-73418152D02*
X71785714Y-73513390D01*
X71785714Y-73513390D02*
X71738095Y-73561009D01*
X71738095Y-73561009D02*
X71642857Y-73608628D01*
X71642857Y-73608628D02*
X71261905Y-73608628D01*
X72404762Y-73513390D02*
X72309524Y-73465771D01*
X72309524Y-73465771D02*
X72261905Y-73418152D01*
X72261905Y-73418152D02*
X72214286Y-73322914D01*
X72214286Y-73322914D02*
X72214286Y-73275295D01*
X72214286Y-73275295D02*
X72261905Y-73180057D01*
X72261905Y-73180057D02*
X72309524Y-73132438D01*
X72309524Y-73132438D02*
X72404762Y-73084819D01*
X72404762Y-73084819D02*
X72595238Y-73084819D01*
X72595238Y-73084819D02*
X72690476Y-73132438D01*
X72690476Y-73132438D02*
X72738095Y-73180057D01*
X72738095Y-73180057D02*
X72785714Y-73275295D01*
X72785714Y-73275295D02*
X72785714Y-73322914D01*
X72785714Y-73322914D02*
X72738095Y-73418152D01*
X72738095Y-73418152D02*
X72690476Y-73465771D01*
X72690476Y-73465771D02*
X72595238Y-73513390D01*
X72595238Y-73513390D02*
X72404762Y-73513390D01*
X72404762Y-73513390D02*
X72309524Y-73561009D01*
X72309524Y-73561009D02*
X72261905Y-73608628D01*
X72261905Y-73608628D02*
X72214286Y-73703866D01*
X72214286Y-73703866D02*
X72214286Y-73894342D01*
X72214286Y-73894342D02*
X72261905Y-73989580D01*
X72261905Y-73989580D02*
X72309524Y-74037200D01*
X72309524Y-74037200D02*
X72404762Y-74084819D01*
X72404762Y-74084819D02*
X72595238Y-74084819D01*
X72595238Y-74084819D02*
X72690476Y-74037200D01*
X72690476Y-74037200D02*
X72738095Y-73989580D01*
X72738095Y-73989580D02*
X72785714Y-73894342D01*
X72785714Y-73894342D02*
X72785714Y-73703866D01*
X72785714Y-73703866D02*
X72738095Y-73608628D01*
X72738095Y-73608628D02*
X72690476Y-73561009D01*
X72690476Y-73561009D02*
X72595238Y-73513390D01*
X82084819Y-71166666D02*
X81608628Y-71499999D01*
X82084819Y-71738094D02*
X81084819Y-71738094D01*
X81084819Y-71738094D02*
X81084819Y-71357142D01*
X81084819Y-71357142D02*
X81132438Y-71261904D01*
X81132438Y-71261904D02*
X81180057Y-71214285D01*
X81180057Y-71214285D02*
X81275295Y-71166666D01*
X81275295Y-71166666D02*
X81418152Y-71166666D01*
X81418152Y-71166666D02*
X81513390Y-71214285D01*
X81513390Y-71214285D02*
X81561009Y-71261904D01*
X81561009Y-71261904D02*
X81608628Y-71357142D01*
X81608628Y-71357142D02*
X81608628Y-71738094D01*
X81180057Y-70785713D02*
X81132438Y-70738094D01*
X81132438Y-70738094D02*
X81084819Y-70642856D01*
X81084819Y-70642856D02*
X81084819Y-70404761D01*
X81084819Y-70404761D02*
X81132438Y-70309523D01*
X81132438Y-70309523D02*
X81180057Y-70261904D01*
X81180057Y-70261904D02*
X81275295Y-70214285D01*
X81275295Y-70214285D02*
X81370533Y-70214285D01*
X81370533Y-70214285D02*
X81513390Y-70261904D01*
X81513390Y-70261904D02*
X82084819Y-70833332D01*
X82084819Y-70833332D02*
X82084819Y-70214285D01*
X72460057Y-61415238D02*
X72412438Y-61510476D01*
X72412438Y-61510476D02*
X72317200Y-61605714D01*
X72317200Y-61605714D02*
X72174342Y-61748571D01*
X72174342Y-61748571D02*
X72126723Y-61843809D01*
X72126723Y-61843809D02*
X72126723Y-61939047D01*
X72364819Y-61891428D02*
X72317200Y-61986666D01*
X72317200Y-61986666D02*
X72221961Y-62081904D01*
X72221961Y-62081904D02*
X72031485Y-62129523D01*
X72031485Y-62129523D02*
X71698152Y-62129523D01*
X71698152Y-62129523D02*
X71507676Y-62081904D01*
X71507676Y-62081904D02*
X71412438Y-61986666D01*
X71412438Y-61986666D02*
X71364819Y-61891428D01*
X71364819Y-61891428D02*
X71364819Y-61700952D01*
X71364819Y-61700952D02*
X71412438Y-61605714D01*
X71412438Y-61605714D02*
X71507676Y-61510476D01*
X71507676Y-61510476D02*
X71698152Y-61462857D01*
X71698152Y-61462857D02*
X72031485Y-61462857D01*
X72031485Y-61462857D02*
X72221961Y-61510476D01*
X72221961Y-61510476D02*
X72317200Y-61605714D01*
X72317200Y-61605714D02*
X72364819Y-61700952D01*
X72364819Y-61700952D02*
X72364819Y-61891428D01*
X71364819Y-61129523D02*
X71364819Y-60510476D01*
X71364819Y-60510476D02*
X71745771Y-60843809D01*
X71745771Y-60843809D02*
X71745771Y-60700952D01*
X71745771Y-60700952D02*
X71793390Y-60605714D01*
X71793390Y-60605714D02*
X71841009Y-60558095D01*
X71841009Y-60558095D02*
X71936247Y-60510476D01*
X71936247Y-60510476D02*
X72174342Y-60510476D01*
X72174342Y-60510476D02*
X72269580Y-60558095D01*
X72269580Y-60558095D02*
X72317200Y-60605714D01*
X72317200Y-60605714D02*
X72364819Y-60700952D01*
X72364819Y-60700952D02*
X72364819Y-60986666D01*
X72364819Y-60986666D02*
X72317200Y-61081904D01*
X72317200Y-61081904D02*
X72269580Y-61129523D01*
X107650057Y-55885238D02*
X107602438Y-55980476D01*
X107602438Y-55980476D02*
X107507200Y-56075714D01*
X107507200Y-56075714D02*
X107364342Y-56218571D01*
X107364342Y-56218571D02*
X107316723Y-56313809D01*
X107316723Y-56313809D02*
X107316723Y-56409047D01*
X107554819Y-56361428D02*
X107507200Y-56456666D01*
X107507200Y-56456666D02*
X107411961Y-56551904D01*
X107411961Y-56551904D02*
X107221485Y-56599523D01*
X107221485Y-56599523D02*
X106888152Y-56599523D01*
X106888152Y-56599523D02*
X106697676Y-56551904D01*
X106697676Y-56551904D02*
X106602438Y-56456666D01*
X106602438Y-56456666D02*
X106554819Y-56361428D01*
X106554819Y-56361428D02*
X106554819Y-56170952D01*
X106554819Y-56170952D02*
X106602438Y-56075714D01*
X106602438Y-56075714D02*
X106697676Y-55980476D01*
X106697676Y-55980476D02*
X106888152Y-55932857D01*
X106888152Y-55932857D02*
X107221485Y-55932857D01*
X107221485Y-55932857D02*
X107411961Y-55980476D01*
X107411961Y-55980476D02*
X107507200Y-56075714D01*
X107507200Y-56075714D02*
X107554819Y-56170952D01*
X107554819Y-56170952D02*
X107554819Y-56361428D01*
X106650057Y-55551904D02*
X106602438Y-55504285D01*
X106602438Y-55504285D02*
X106554819Y-55409047D01*
X106554819Y-55409047D02*
X106554819Y-55170952D01*
X106554819Y-55170952D02*
X106602438Y-55075714D01*
X106602438Y-55075714D02*
X106650057Y-55028095D01*
X106650057Y-55028095D02*
X106745295Y-54980476D01*
X106745295Y-54980476D02*
X106840533Y-54980476D01*
X106840533Y-54980476D02*
X106983390Y-55028095D01*
X106983390Y-55028095D02*
X107554819Y-55599523D01*
X107554819Y-55599523D02*
X107554819Y-54980476D01*
X116334819Y-70083333D02*
X117049104Y-70083333D01*
X117049104Y-70083333D02*
X117191961Y-70130952D01*
X117191961Y-70130952D02*
X117287200Y-70226190D01*
X117287200Y-70226190D02*
X117334819Y-70369047D01*
X117334819Y-70369047D02*
X117334819Y-70464285D01*
X116430057Y-69654761D02*
X116382438Y-69607142D01*
X116382438Y-69607142D02*
X116334819Y-69511904D01*
X116334819Y-69511904D02*
X116334819Y-69273809D01*
X116334819Y-69273809D02*
X116382438Y-69178571D01*
X116382438Y-69178571D02*
X116430057Y-69130952D01*
X116430057Y-69130952D02*
X116525295Y-69083333D01*
X116525295Y-69083333D02*
X116620533Y-69083333D01*
X116620533Y-69083333D02*
X116763390Y-69130952D01*
X116763390Y-69130952D02*
X117334819Y-69702380D01*
X117334819Y-69702380D02*
X117334819Y-69083333D01*
X116334819Y-56083333D02*
X117049104Y-56083333D01*
X117049104Y-56083333D02*
X117191961Y-56130952D01*
X117191961Y-56130952D02*
X117287200Y-56226190D01*
X117287200Y-56226190D02*
X117334819Y-56369047D01*
X117334819Y-56369047D02*
X117334819Y-56464285D01*
X117334819Y-55083333D02*
X117334819Y-55654761D01*
X117334819Y-55369047D02*
X116334819Y-55369047D01*
X116334819Y-55369047D02*
X116477676Y-55464285D01*
X116477676Y-55464285D02*
X116572914Y-55559523D01*
X116572914Y-55559523D02*
X116620533Y-55654761D01*
X80464819Y-70058094D02*
X79464819Y-70058094D01*
X79464819Y-70058094D02*
X79464819Y-69819999D01*
X79464819Y-69819999D02*
X79512438Y-69677142D01*
X79512438Y-69677142D02*
X79607676Y-69581904D01*
X79607676Y-69581904D02*
X79702914Y-69534285D01*
X79702914Y-69534285D02*
X79893390Y-69486666D01*
X79893390Y-69486666D02*
X80036247Y-69486666D01*
X80036247Y-69486666D02*
X80226723Y-69534285D01*
X80226723Y-69534285D02*
X80321961Y-69581904D01*
X80321961Y-69581904D02*
X80417200Y-69677142D01*
X80417200Y-69677142D02*
X80464819Y-69819999D01*
X80464819Y-69819999D02*
X80464819Y-70058094D01*
X79560057Y-69105713D02*
X79512438Y-69058094D01*
X79512438Y-69058094D02*
X79464819Y-68962856D01*
X79464819Y-68962856D02*
X79464819Y-68724761D01*
X79464819Y-68724761D02*
X79512438Y-68629523D01*
X79512438Y-68629523D02*
X79560057Y-68581904D01*
X79560057Y-68581904D02*
X79655295Y-68534285D01*
X79655295Y-68534285D02*
X79750533Y-68534285D01*
X79750533Y-68534285D02*
X79893390Y-68581904D01*
X79893390Y-68581904D02*
X80464819Y-69153332D01*
X80464819Y-69153332D02*
X80464819Y-68534285D01*
%TO.C,C4*%
D11*
X98620000Y-81000000D02*
G75*
G02*
X88380000Y-81000000I-5120000J0D01*
G01*
X88380000Y-81000000D02*
G75*
G02*
X98620000Y-81000000I5120000J0D01*
G01*
X88420000Y-81599000D02*
X88420000Y-80401000D01*
X88460000Y-81862000D02*
X88460000Y-80138000D01*
X88500000Y-82062000D02*
X88500000Y-79938000D01*
X88540000Y-82230000D02*
X88540000Y-79770000D01*
X88580000Y-82377000D02*
X88580000Y-79623000D01*
X88620000Y-82509000D02*
X88620000Y-79491000D01*
X88660000Y-82630000D02*
X88660000Y-79370000D01*
X88700000Y-82742000D02*
X88700000Y-79258000D01*
X88740000Y-82846000D02*
X88740000Y-79154000D01*
X88780000Y-82944000D02*
X88780000Y-79056000D01*
X88820000Y-83037000D02*
X88820000Y-78963000D01*
X88860000Y-83124000D02*
X88860000Y-78876000D01*
X88900000Y-83208000D02*
X88900000Y-78792000D01*
X88940000Y-83288000D02*
X88940000Y-78712000D01*
X88980000Y-83365000D02*
X88980000Y-78635000D01*
X89020000Y-83439000D02*
X89020000Y-78561000D01*
X89060000Y-83510000D02*
X89060000Y-78490000D01*
X89100000Y-83578000D02*
X89100000Y-78422000D01*
X89140000Y-83644000D02*
X89140000Y-78356000D01*
X89180000Y-83708000D02*
X89180000Y-78292000D01*
X89220000Y-83770000D02*
X89220000Y-78230000D01*
X89260000Y-83830000D02*
X89260000Y-78170000D01*
X89300000Y-83888000D02*
X89300000Y-78112000D01*
X89340000Y-83945000D02*
X89340000Y-78055000D01*
X89380000Y-84000000D02*
X89380000Y-78000000D01*
X89420000Y-84053000D02*
X89420000Y-77947000D01*
X89460000Y-84105000D02*
X89460000Y-77895000D01*
X89500000Y-84156000D02*
X89500000Y-77844000D01*
X89540000Y-84205000D02*
X89540000Y-77795000D01*
X89580000Y-84254000D02*
X89580000Y-77746000D01*
X89620000Y-84301000D02*
X89620000Y-77699000D01*
X89660000Y-84347000D02*
X89660000Y-77653000D01*
X89700000Y-84391000D02*
X89700000Y-77609000D01*
X89740000Y-84435000D02*
X89740000Y-77565000D01*
X89780000Y-79760000D02*
X89780000Y-77522000D01*
X89780000Y-84478000D02*
X89780000Y-82240000D01*
X89820000Y-79760000D02*
X89820000Y-77480000D01*
X89820000Y-84520000D02*
X89820000Y-82240000D01*
X89860000Y-79760000D02*
X89860000Y-77439000D01*
X89860000Y-84561000D02*
X89860000Y-82240000D01*
X89900000Y-79760000D02*
X89900000Y-77399000D01*
X89900000Y-84601000D02*
X89900000Y-82240000D01*
X89940000Y-79760000D02*
X89940000Y-77360000D01*
X89940000Y-84640000D02*
X89940000Y-82240000D01*
X89980000Y-79760000D02*
X89980000Y-77322000D01*
X89980000Y-84678000D02*
X89980000Y-82240000D01*
X90020000Y-79760000D02*
X90020000Y-77284000D01*
X90020000Y-84716000D02*
X90020000Y-82240000D01*
X90060000Y-79760000D02*
X90060000Y-77248000D01*
X90060000Y-84752000D02*
X90060000Y-82240000D01*
X90100000Y-79760000D02*
X90100000Y-77212000D01*
X90100000Y-84788000D02*
X90100000Y-82240000D01*
X90140000Y-79760000D02*
X90140000Y-77177000D01*
X90140000Y-84823000D02*
X90140000Y-82240000D01*
X90180000Y-79760000D02*
X90180000Y-77142000D01*
X90180000Y-84858000D02*
X90180000Y-82240000D01*
X90220000Y-79760000D02*
X90220000Y-77109000D01*
X90220000Y-84891000D02*
X90220000Y-82240000D01*
X90260000Y-79760000D02*
X90260000Y-77076000D01*
X90260000Y-84924000D02*
X90260000Y-82240000D01*
X90300000Y-79760000D02*
X90300000Y-77043000D01*
X90300000Y-84957000D02*
X90300000Y-82240000D01*
X90340000Y-79760000D02*
X90340000Y-77012000D01*
X90340000Y-84988000D02*
X90340000Y-82240000D01*
X90380000Y-79760000D02*
X90380000Y-76980000D01*
X90380000Y-85020000D02*
X90380000Y-82240000D01*
X90420000Y-79760000D02*
X90420000Y-76950000D01*
X90420000Y-85050000D02*
X90420000Y-82240000D01*
X90460000Y-79760000D02*
X90460000Y-76920000D01*
X90460000Y-85080000D02*
X90460000Y-82240000D01*
X90500000Y-79760000D02*
X90500000Y-76891000D01*
X90500000Y-85109000D02*
X90500000Y-82240000D01*
X90540000Y-79760000D02*
X90540000Y-76862000D01*
X90540000Y-85138000D02*
X90540000Y-82240000D01*
X90580000Y-79760000D02*
X90580000Y-76834000D01*
X90580000Y-85166000D02*
X90580000Y-82240000D01*
X90620000Y-79760000D02*
X90620000Y-76807000D01*
X90620000Y-85193000D02*
X90620000Y-82240000D01*
X90660000Y-79760000D02*
X90660000Y-76780000D01*
X90660000Y-85220000D02*
X90660000Y-82240000D01*
X90700000Y-79760000D02*
X90700000Y-76753000D01*
X90700000Y-85247000D02*
X90700000Y-82240000D01*
X90740000Y-79760000D02*
X90740000Y-76728000D01*
X90740000Y-85272000D02*
X90740000Y-82240000D01*
X90780000Y-79760000D02*
X90780000Y-76702000D01*
X90780000Y-85298000D02*
X90780000Y-82240000D01*
X90820000Y-79760000D02*
X90820000Y-76677000D01*
X90820000Y-85323000D02*
X90820000Y-82240000D01*
X90860000Y-79760000D02*
X90860000Y-76653000D01*
X90860000Y-85347000D02*
X90860000Y-82240000D01*
X90900000Y-79760000D02*
X90900000Y-76629000D01*
X90900000Y-85371000D02*
X90900000Y-82240000D01*
X90940000Y-79760000D02*
X90940000Y-76606000D01*
X90940000Y-85394000D02*
X90940000Y-82240000D01*
X90980000Y-79760000D02*
X90980000Y-76583000D01*
X90980000Y-85417000D02*
X90980000Y-82240000D01*
X91020000Y-79760000D02*
X91020000Y-76561000D01*
X91020000Y-85439000D02*
X91020000Y-82240000D01*
X91060000Y-79760000D02*
X91060000Y-76539000D01*
X91060000Y-85461000D02*
X91060000Y-82240000D01*
X91100000Y-79760000D02*
X91100000Y-76517000D01*
X91100000Y-85483000D02*
X91100000Y-82240000D01*
X91140000Y-79760000D02*
X91140000Y-76496000D01*
X91140000Y-85504000D02*
X91140000Y-82240000D01*
X91180000Y-79760000D02*
X91180000Y-76476000D01*
X91180000Y-85524000D02*
X91180000Y-82240000D01*
X91220000Y-79760000D02*
X91220000Y-76456000D01*
X91220000Y-85544000D02*
X91220000Y-82240000D01*
X91260000Y-79760000D02*
X91260000Y-76436000D01*
X91260000Y-85564000D02*
X91260000Y-82240000D01*
X91300000Y-79760000D02*
X91300000Y-76417000D01*
X91300000Y-85583000D02*
X91300000Y-82240000D01*
X91340000Y-79760000D02*
X91340000Y-76398000D01*
X91340000Y-85602000D02*
X91340000Y-82240000D01*
X91380000Y-79760000D02*
X91380000Y-76380000D01*
X91380000Y-85620000D02*
X91380000Y-82240000D01*
X91420000Y-79760000D02*
X91420000Y-76362000D01*
X91420000Y-85638000D02*
X91420000Y-82240000D01*
X91460000Y-79760000D02*
X91460000Y-76344000D01*
X91460000Y-85656000D02*
X91460000Y-82240000D01*
X91500000Y-79760000D02*
X91500000Y-76327000D01*
X91500000Y-85673000D02*
X91500000Y-82240000D01*
X91540000Y-79760000D02*
X91540000Y-76310000D01*
X91540000Y-85690000D02*
X91540000Y-82240000D01*
X91580000Y-79760000D02*
X91580000Y-76294000D01*
X91580000Y-85706000D02*
X91580000Y-82240000D01*
X91620000Y-79760000D02*
X91620000Y-76278000D01*
X91620000Y-85722000D02*
X91620000Y-82240000D01*
X91660000Y-79760000D02*
X91660000Y-76262000D01*
X91660000Y-85738000D02*
X91660000Y-82240000D01*
X91700000Y-79760000D02*
X91700000Y-76247000D01*
X91700000Y-85753000D02*
X91700000Y-82240000D01*
X91740000Y-79760000D02*
X91740000Y-76232000D01*
X91740000Y-85768000D02*
X91740000Y-82240000D01*
X91780000Y-79760000D02*
X91780000Y-76218000D01*
X91780000Y-85782000D02*
X91780000Y-82240000D01*
X91820000Y-79760000D02*
X91820000Y-76203000D01*
X91820000Y-85797000D02*
X91820000Y-82240000D01*
X91860000Y-79760000D02*
X91860000Y-76190000D01*
X91860000Y-85810000D02*
X91860000Y-82240000D01*
X91900000Y-79760000D02*
X91900000Y-76176000D01*
X91900000Y-85824000D02*
X91900000Y-82240000D01*
X91940000Y-79760000D02*
X91940000Y-76163000D01*
X91940000Y-85837000D02*
X91940000Y-82240000D01*
X91980000Y-79760000D02*
X91980000Y-76151000D01*
X91980000Y-85849000D02*
X91980000Y-82240000D01*
X92020000Y-79760000D02*
X92020000Y-76139000D01*
X92020000Y-85861000D02*
X92020000Y-82240000D01*
X92060000Y-79760000D02*
X92060000Y-76127000D01*
X92060000Y-85873000D02*
X92060000Y-82240000D01*
X92100000Y-79760000D02*
X92100000Y-76115000D01*
X92100000Y-85885000D02*
X92100000Y-82240000D01*
X92140000Y-79760000D02*
X92140000Y-76104000D01*
X92140000Y-85896000D02*
X92140000Y-82240000D01*
X92180000Y-79760000D02*
X92180000Y-76093000D01*
X92180000Y-85907000D02*
X92180000Y-82240000D01*
X92220000Y-79760000D02*
X92220000Y-76083000D01*
X92220000Y-85917000D02*
X92220000Y-82240000D01*
X92260000Y-85928000D02*
X92260000Y-76072000D01*
X92300000Y-85937000D02*
X92300000Y-76063000D01*
X92340000Y-85947000D02*
X92340000Y-76053000D01*
X92380000Y-85956000D02*
X92380000Y-76044000D01*
X92420000Y-85965000D02*
X92420000Y-76035000D01*
X92460000Y-85973000D02*
X92460000Y-76027000D01*
X92500000Y-85981000D02*
X92500000Y-76019000D01*
X92540000Y-85989000D02*
X92540000Y-76011000D01*
X92580000Y-85997000D02*
X92580000Y-76003000D01*
X92620000Y-86004000D02*
X92620000Y-75996000D01*
X92660000Y-86011000D02*
X92660000Y-75989000D01*
X92700000Y-86017000D02*
X92700000Y-75983000D01*
X92740000Y-86023000D02*
X92740000Y-75977000D01*
X92780000Y-86029000D02*
X92780000Y-75971000D01*
X92820000Y-86035000D02*
X92820000Y-75965000D01*
X92860000Y-86040000D02*
X92860000Y-75960000D01*
X92900000Y-86045000D02*
X92900000Y-75955000D01*
X92940000Y-86049000D02*
X92940000Y-75951000D01*
X92980000Y-86054000D02*
X92980000Y-75946000D01*
X93020000Y-86057000D02*
X93020000Y-75943000D01*
X93060000Y-86061000D02*
X93060000Y-75939000D01*
X93100000Y-86064000D02*
X93100000Y-75936000D01*
X93140000Y-86067000D02*
X93140000Y-75933000D01*
X93180000Y-86070000D02*
X93180000Y-75930000D01*
X93220000Y-86072000D02*
X93220000Y-75928000D01*
X93260000Y-86074000D02*
X93260000Y-75926000D01*
X93300000Y-86076000D02*
X93300000Y-75924000D01*
X93340000Y-86077000D02*
X93340000Y-75923000D01*
X93380000Y-86079000D02*
X93380000Y-75921000D01*
X93420000Y-86079000D02*
X93420000Y-75921000D01*
X93460000Y-86080000D02*
X93460000Y-75920000D01*
X93500000Y-86080000D02*
X93500000Y-75920000D01*
X98479646Y-84375000D02*
X98479646Y-83375000D01*
X98979646Y-83875000D02*
X97979646Y-83875000D01*
%TO.C,U1*%
X94190000Y-58670000D02*
G75*
G02*
X92190000Y-58670000I-1000000J0D01*
G01*
X95840000Y-68950000D02*
X95840000Y-58670000D01*
X95840000Y-58670000D02*
X94190000Y-58670000D01*
X92190000Y-58670000D02*
X90540000Y-58670000D01*
X90540000Y-68950000D02*
X95840000Y-68950000D01*
X90540000Y-58670000D02*
X90540000Y-68950000D01*
%TO.C,R1*%
X104370000Y-65730000D02*
X104040000Y-65730000D01*
X101630000Y-65730000D02*
X101960000Y-65730000D01*
X104370000Y-72270000D02*
X104370000Y-65730000D01*
X104040000Y-72270000D02*
X104370000Y-72270000D01*
X101960000Y-72270000D02*
X101630000Y-72270000D01*
X101630000Y-72270000D02*
X101630000Y-65730000D01*
%TO.C,RV1*%
X108969000Y-67622000D02*
G75*
G02*
X112031000Y-67622000I1531000J-2877010D01*
G01*
X113378000Y-68969000D02*
G75*
G02*
X111304000Y-73659000I-2876790J-1531413D01*
G01*
X109696000Y-73659000D02*
G75*
G02*
X107622000Y-68969000I802790J3158587D01*
G01*
%TO.C,R6*%
X96270000Y-51370000D02*
X96270000Y-51040000D01*
X96270000Y-48630000D02*
X96270000Y-48960000D01*
X89730000Y-51370000D02*
X96270000Y-51370000D01*
X89730000Y-51040000D02*
X89730000Y-51370000D01*
X89730000Y-48960000D02*
X89730000Y-48630000D01*
X89730000Y-48630000D02*
X96270000Y-48630000D01*
%TO.C,R3*%
X66630000Y-67080000D02*
X66960000Y-67080000D01*
X69370000Y-67080000D02*
X69040000Y-67080000D01*
X66630000Y-60540000D02*
X66630000Y-67080000D01*
X66960000Y-60540000D02*
X66630000Y-60540000D01*
X69040000Y-60540000D02*
X69370000Y-60540000D01*
X69370000Y-60540000D02*
X69370000Y-67080000D01*
%TO.C,C3*%
X91430000Y-54830000D02*
X95070000Y-54830000D01*
X91430000Y-55130000D02*
X91430000Y-54830000D01*
X91430000Y-57170000D02*
X91430000Y-56870000D01*
X95070000Y-54830000D02*
X95070000Y-55130000D01*
X95070000Y-56870000D02*
X95070000Y-57170000D01*
X95070000Y-57170000D02*
X91430000Y-57170000D01*
%TO.C,C2*%
X91430000Y-70830000D02*
X95070000Y-70830000D01*
X91430000Y-71130000D02*
X91430000Y-70830000D01*
X91430000Y-73170000D02*
X91430000Y-72870000D01*
X95070000Y-70830000D02*
X95070000Y-71130000D01*
X95070000Y-72870000D02*
X95070000Y-73170000D01*
X95070000Y-73170000D02*
X91430000Y-73170000D01*
%TO.C,D1*%
X111030000Y-53280000D02*
X113970000Y-53280000D01*
X113970000Y-58720000D01*
X111030000Y-58720000D01*
X111030000Y-53280000D01*
X112500000Y-52260000D02*
X112500000Y-53280000D01*
X111030000Y-57700000D02*
X113970000Y-57700000D01*
X111030000Y-57820000D02*
X113970000Y-57820000D01*
X111030000Y-57940000D02*
X113970000Y-57940000D01*
X112500000Y-59740000D02*
X112500000Y-58720000D01*
%TO.C,R4*%
X82630000Y-64080000D02*
X82960000Y-64080000D01*
X85370000Y-64080000D02*
X85040000Y-64080000D01*
X82630000Y-57540000D02*
X82630000Y-64080000D01*
X82960000Y-57540000D02*
X82630000Y-57540000D01*
X85040000Y-57540000D02*
X85370000Y-57540000D01*
X85370000Y-57540000D02*
X85370000Y-64080000D01*
%TO.C,SW1*%
X108250000Y-47000000D02*
X108250000Y-45500000D01*
X107000000Y-43000000D02*
X102500000Y-43000000D01*
X102500000Y-49500000D02*
X107000000Y-49500000D01*
X101250000Y-45500000D02*
X101250000Y-47000000D01*
%TO.C,R8*%
X68730000Y-74630000D02*
X75270000Y-74630000D01*
X68730000Y-74960000D02*
X68730000Y-74630000D01*
X68730000Y-77040000D02*
X68730000Y-77370000D01*
X68730000Y-77370000D02*
X75270000Y-77370000D01*
X75270000Y-74630000D02*
X75270000Y-74960000D01*
X75270000Y-77370000D02*
X75270000Y-77040000D01*
%TO.C,R2*%
X82630000Y-74270000D02*
X82630000Y-67730000D01*
X82960000Y-74270000D02*
X82630000Y-74270000D01*
X85040000Y-74270000D02*
X85370000Y-74270000D01*
X85370000Y-74270000D02*
X85370000Y-67730000D01*
X82630000Y-67730000D02*
X82960000Y-67730000D01*
X85370000Y-67730000D02*
X85040000Y-67730000D01*
%TO.C,Q3*%
X77760000Y-63120000D02*
X77760000Y-59520000D01*
X77748478Y-63158478D02*
G75*
G02*
X73309999Y-61320000I-1838478J1838478D01*
G01*
X73310000Y-61320000D02*
G75*
G02*
X77748478Y-59481522I2600000J0D01*
G01*
%TO.C,Q2*%
X106260000Y-52390000D02*
X106260000Y-59190000D01*
X106040000Y-52390000D02*
X106260000Y-52390000D01*
X103740000Y-54671000D02*
X103740000Y-54619000D01*
X105650000Y-56909000D02*
X105650000Y-56961000D01*
X106260000Y-59190000D02*
X106040000Y-59190000D01*
%TO.C,J2*%
X117880000Y-75120000D02*
X117880000Y-64380000D01*
X121500000Y-75120000D02*
X121500000Y-73880000D01*
X122500000Y-75120000D02*
X122500000Y-73880000D01*
X123800000Y-75120000D02*
X123800000Y-73880000D01*
X125920000Y-75120000D02*
X117880000Y-75120000D01*
X125920000Y-72300000D02*
X125920000Y-75120000D01*
X121500000Y-70120000D02*
X121500000Y-68812000D01*
X122500000Y-70120000D02*
X122500000Y-68812000D01*
X123800000Y-70120000D02*
X123800000Y-67543000D01*
X123800000Y-66457000D02*
X123800000Y-64380000D01*
X121500000Y-65188000D02*
X121500000Y-64380000D01*
X122500000Y-65188000D02*
X122500000Y-64380000D01*
X117880000Y-64380000D02*
X125920000Y-64380000D01*
X125920000Y-64380000D02*
X125920000Y-71700000D01*
X125920000Y-72000000D02*
X126530000Y-71560000D01*
X126530000Y-72440000D01*
X125920000Y-72000000D01*
G36*
X126530000Y-72440000D02*
G01*
X125920000Y-72000000D01*
X126530000Y-71560000D01*
X126530000Y-72440000D01*
G37*
%TO.C,J1*%
X117880000Y-61120000D02*
X117880000Y-50380000D01*
X121500000Y-61120000D02*
X121500000Y-59880000D01*
X122500000Y-61120000D02*
X122500000Y-59880000D01*
X123800000Y-61120000D02*
X123800000Y-59880000D01*
X125920000Y-61120000D02*
X117880000Y-61120000D01*
X125920000Y-58300000D02*
X125920000Y-61120000D01*
X121500000Y-56120000D02*
X121500000Y-54812000D01*
X122500000Y-56120000D02*
X122500000Y-54812000D01*
X123800000Y-56120000D02*
X123800000Y-53543000D01*
X123800000Y-52457000D02*
X123800000Y-50380000D01*
X121500000Y-51188000D02*
X121500000Y-50380000D01*
X122500000Y-51188000D02*
X122500000Y-50380000D01*
X117880000Y-50380000D02*
X125920000Y-50380000D01*
X125920000Y-50380000D02*
X125920000Y-57700000D01*
X125920000Y-58000000D02*
X126530000Y-57560000D01*
X126530000Y-58440000D01*
X125920000Y-58000000D01*
G36*
X126530000Y-58440000D02*
G01*
X125920000Y-58000000D01*
X126530000Y-57560000D01*
X126530000Y-58440000D01*
G37*
%TO.C,D2*%
X77595000Y-66760000D02*
X74505000Y-66760000D01*
X77594830Y-66760000D02*
G75*
G02*
X76050000Y-72310000I-1544830J-2560000D01*
G01*
X76050000Y-72310000D02*
G75*
G02*
X74505170Y-66760000I0J2990000D01*
G01*
X78550000Y-69320000D02*
G75*
G02*
X73550000Y-69320000I-2500000J0D01*
G01*
X73550000Y-69320000D02*
G75*
G02*
X78550000Y-69320000I2500000J0D01*
G01*
%TD*%
M02*
