%TF.GenerationSoftware,KiCad,Pcbnew,10.0.5*%
%TF.CreationDate,2026-08-22T21:32:10+09:00*%
%TF.ProjectId,mizuyari01,6d697a75-7961-4726-9930-312e6b696361,rev?*%
%TF.SameCoordinates,Original*%
%TF.FileFunction,Soldermask,Bot*%
%TF.FilePolarity,Negative*%
%FSLAX46Y46*%
G04 Gerber Fmt 4.6, Leading zero omitted, Abs format (unit mm)*
G04 Created by KiCad (PCBNEW 10.0.5) date 2026-08-22 21:32:10*
%MOMM*%
%LPD*%
G01*
G04 APERTURE LIST*
G04 Aperture macros list*
%AMRoundRect*
0 Rectangle with rounded corners*
0 $1 Rounding radius*
0 $2 $3 $4 $5 $6 $7 $8 $9 X,Y pos of 4 corners*
0 Add a 4 corners polygon primitive as box body*
4,1,4,$2,$3,$4,$5,$6,$7,$8,$9,$2,$3,0*
0 Add four circle primitives for the rounded corners*
1,1,$1+$1,$2,$3*
1,1,$1+$1,$4,$5*
1,1,$1+$1,$6,$7*
1,1,$1+$1,$8,$9*
0 Add four rect primitives between the rounded corners*
20,1,$1+$1,$2,$3,$4,$5,0*
20,1,$1+$1,$4,$5,$6,$7,0*
20,1,$1+$1,$6,$7,$8,$9,0*
20,1,$1+$1,$8,$9,$2,$3,0*%
G04 Aperture macros list end*
%ADD10C,2.000000*%
%ADD11RoundRect,0.250000X0.750000X0.750000X-0.750000X0.750000X-0.750000X-0.750000X0.750000X-0.750000X0*%
%ADD12C,2.600000*%
%ADD13RoundRect,0.250000X1.050000X-1.050000X1.050000X1.050000X-1.050000X1.050000X-1.050000X-1.050000X0*%
%ADD14C,1.600000*%
%ADD15RoundRect,0.250000X-0.550000X-0.550000X0.550000X-0.550000X0.550000X0.550000X-0.550000X0.550000X0*%
%ADD16C,1.620000*%
%ADD17C,2.200000*%
%ADD18RoundRect,0.249999X0.850001X-0.850001X0.850001X0.850001X-0.850001X0.850001X-0.850001X-0.850001X0*%
%ADD19C,3.200000*%
%ADD20R,1.500000X1.050000*%
%ADD21O,1.500000X1.050000*%
%ADD22R,1.800000X1.717500*%
%ADD23O,1.800000X1.717500*%
%ADD24RoundRect,0.250001X1.149999X-1.149999X1.149999X1.149999X-1.149999X1.149999X-1.149999X-1.149999X0*%
%ADD25C,2.800000*%
%ADD26R,1.800000X1.800000*%
%ADD27C,1.800000*%
G04 APERTURE END LIST*
D10*
%TO.C,C4*%
X91000000Y-81000000D03*
D11*
X96000000Y-81000000D03*
%TD*%
D12*
%TO.C,J3*%
X60000000Y-55950000D03*
X60000000Y-60750000D03*
D13*
X60000000Y-65550000D03*
%TD*%
D14*
%TO.C,U1*%
X97000000Y-60000000D03*
X97000000Y-62540000D03*
X97000000Y-65080000D03*
X97000000Y-67620000D03*
X89380000Y-67620000D03*
X89380000Y-65080000D03*
X89380000Y-62540000D03*
D15*
X89380000Y-60000000D03*
%TD*%
D14*
%TO.C,R1*%
X103000000Y-65190000D03*
X103000000Y-72810000D03*
%TD*%
D16*
%TO.C,RV1*%
X108000000Y-68000000D03*
X110500000Y-73000000D03*
X113000000Y-68000000D03*
%TD*%
D14*
%TO.C,R6*%
X96810000Y-50000000D03*
X89190000Y-50000000D03*
%TD*%
%TO.C,R3*%
X68000000Y-67620000D03*
X68000000Y-60000000D03*
%TD*%
%TO.C,C3*%
X92000000Y-56000000D03*
X94500000Y-56000000D03*
%TD*%
%TO.C,C2*%
X92000000Y-72000000D03*
X94500000Y-72000000D03*
%TD*%
D17*
%TO.C,D1*%
X112500000Y-50920000D03*
D18*
X112500000Y-61080000D03*
%TD*%
D19*
%TO.C,H4*%
X126000000Y-85000000D03*
%TD*%
%TO.C,H3*%
X59000000Y-85000000D03*
%TD*%
%TO.C,H2*%
X126000000Y-43000000D03*
%TD*%
%TO.C,H1*%
X59000000Y-43000000D03*
%TD*%
D14*
%TO.C,R4*%
X84000000Y-64620000D03*
X84000000Y-57000000D03*
%TD*%
D10*
%TO.C,SW1*%
X108000000Y-48500000D03*
X101500000Y-48500000D03*
X108000000Y-44000000D03*
X101500000Y-44000000D03*
%TD*%
D14*
%TO.C,R8*%
X68190000Y-76000000D03*
X75810000Y-76000000D03*
%TD*%
%TO.C,R2*%
X84000000Y-74810000D03*
X84000000Y-67190000D03*
%TD*%
D20*
%TO.C,Q3*%
X75910000Y-62590000D03*
D21*
X75910000Y-61320000D03*
X75910000Y-60050000D03*
%TD*%
D22*
%TO.C,Q2*%
X104880000Y-53500000D03*
D23*
X104880000Y-55790000D03*
X104880000Y-58080000D03*
%TD*%
D24*
%TO.C,J2*%
X122000000Y-72000000D03*
D25*
X122000000Y-67000000D03*
%TD*%
D24*
%TO.C,J1*%
X122000000Y-58000000D03*
D25*
X122000000Y-53000000D03*
%TD*%
D26*
%TO.C,D2*%
X76050000Y-68050000D03*
D27*
X76050000Y-70590000D03*
%TD*%
M02*
